<?xml version="1.0" encoding="UTF-8" standalone="no"?>
<svg
   xmlns:dc="http://purl.org/dc/elements/1.1/"
   xmlns:cc="http://creativecommons.org/ns#"
   xmlns:rdf="http://www.w3.org/1999/02/22-rdf-syntax-ns#"
   xmlns:svg="http://www.w3.org/2000/svg"
   xmlns="http://www.w3.org/2000/svg"
   xmlns:sodipodi="http://sodipodi.sourceforge.net/DTD/sodipodi-0.dtd"
   xmlns:inkscape="http://www.inkscape.org/namespaces/inkscape"
   inkscape:version="1.0 (4035a4fb49, 2020-05-01)"
   height="65.201828"
   width="141.84221"
   sodipodi:docname="logo_vlaamse_regering_cropped.svg"
   xml:space="preserve"
   viewBox="0 0 141.84221 65.201828"
   y="0px"
   x="0px"
   id="Laag_1"
   version="1.1"><metadata
   id="metadata182"><rdf:RDF><cc:Work
       rdf:about=""><dc:format>image/svg+xml</dc:format><dc:type
         rdf:resource="http://purl.org/dc/dcmitype/StillImage" /><dc:title></dc:title></cc:Work></rdf:RDF></metadata><defs
   id="defs180" /><sodipodi:namedview
   inkscape:current-layer="Laag_1"
   inkscape:window-maximized="0"
   inkscape:window-y="31"
   inkscape:window-x="962"
   inkscape:cy="39.690082"
   inkscape:cx="71.492216"
   inkscape:zoom="2.6631393"
   showgrid="false"
   id="namedview178"
   inkscape:window-height="1045"
   inkscape:window-width="954"
   inkscape:pageshadow="2"
   inkscape:pageopacity="0"
   guidetolerance="10"
   gridtolerance="10"
   objecttolerance="10"
   borderopacity="1"
   bordercolor="#666666"
   pagecolor="#ffffff" />
<style
   id="style129"
   type="text/css">
	.st0{fill:#373636;}
</style>
<polygon
   transform="translate(-70.257784,-102.05992)"
   id="polygon131"
   points="131.2,129.8 126.2,115.4 128.9,115.4 132.7,126.4 136.4,115.4 139.1,115.4 134.1,129.8 "
   class="st0" />
<polygon
   transform="translate(-70.257784,-102.05992)"
   id="polygon133"
   points="144,114 144,129.6 141.4,129.6 141.4,114.2 143.6,114 "
   class="st0" />
<g
   transform="translate(-70.257784,-102.05992)"
   id="g175">
	<path
   id="path135"
   d="m 155.8,129.8 c -0.4,0 -0.8,-0.1 -1.3,-0.2 -0.4,-0.2 -0.8,-0.5 -1.3,-0.9 -0.4,0.3 -0.8,0.6 -1.3,0.8 -0.5,0.2 -1,0.3 -1.7,0.3 -0.5,0 -1.1,-0.1 -1.6,-0.3 -0.6,-0.2 -1.1,-0.5 -1.4,-1 -0.4,-0.5 -0.6,-1.3 -0.6,-2.3 0,-1 0.2,-1.8 0.8,-2.3 0.6,-0.5 1.6,-0.8 3.1,-0.8 0.6,0 1.3,0 2.3,0.1 v -0.6 c 0,-0.8 -0.2,-1.3 -0.6,-1.6 -0.4,-0.3 -0.9,-0.5 -1.5,-0.5 -0.5,0 -1,0.1 -1.5,0.2 -0.5,0.1 -1,0.3 -1.5,0.5 l -0.6,-2.2 c 1.2,-0.6 2.7,-0.9 4.1,-0.9 1.1,0 2.1,0.2 2.9,0.8 0.8,0.6 1.2,1.5 1.2,2.9 v 4.2 c 0,0.5 0.2,0.9 0.5,1.2 0.3,0.3 0.7,0.4 1.2,0.5 z m -3,-4.7 c -1.2,0 -2.1,0 -2.7,0.1 -0.6,0.1 -1,0.5 -1,1.1 0,0.9 0.7,1.4 1.6,1.4 0.3,0 0.8,-0.1 1.3,-0.3 0.5,-0.3 0.8,-0.8 0.8,-1.7 z"
   class="st0" />
	<path
   id="path137"
   d="m 167.5,129.8 c -0.4,0 -0.8,-0.1 -1.2,-0.2 -0.4,-0.2 -0.8,-0.5 -1.3,-0.9 -0.4,0.3 -0.8,0.6 -1.3,0.8 -0.5,0.2 -1,0.3 -1.7,0.3 -0.5,0 -1.1,-0.1 -1.6,-0.3 -0.6,-0.2 -1.1,-0.5 -1.4,-1 -0.4,-0.5 -0.6,-1.3 -0.6,-2.3 0,-1 0.2,-1.8 0.8,-2.3 0.6,-0.5 1.6,-0.8 3.1,-0.8 0.6,0 1.3,0 2.3,0.1 v -0.6 c 0,-0.8 -0.2,-1.3 -0.6,-1.6 -0.4,-0.3 -0.9,-0.5 -1.5,-0.5 -0.5,0 -1,0.1 -1.5,0.2 -0.5,0.1 -1,0.3 -1.5,0.5 l -0.6,-2.2 c 1.2,-0.6 2.7,-0.9 4.1,-0.9 1.1,0 2.1,0.2 2.9,0.8 0.8,0.6 1.2,1.5 1.2,2.9 v 4.2 c 0,0.5 0.2,0.9 0.5,1.2 0.3,0.3 0.7,0.4 1.2,0.5 z m -3,-4.7 c -1.2,0 -2.1,0 -2.7,0.1 -0.6,0.1 -1,0.5 -1,1.1 0,0.9 0.7,1.4 1.6,1.4 0.3,0 0.8,-0.1 1.3,-0.3 0.5,-0.3 0.8,-0.8 0.8,-1.7 z"
   class="st0" />
	<path
   id="path139"
   d="m 170.7,118.4 h 2.1 l 0.2,0.8 c 0.9,-0.6 1.9,-1 3,-1 1.1,0 2.1,0.4 2.7,1.3 1,-0.9 2.2,-1.3 3.4,-1.3 0.9,0 1.8,0.3 2.5,0.9 0.6,0.6 1.1,1.6 1.1,3 v 7.4 h -2.5 v -6.7 c 0,-0.8 -0.2,-1.4 -0.6,-1.7 -0.4,-0.3 -0.8,-0.5 -1.3,-0.5 -0.6,0 -1.3,0.2 -1.9,0.6 0,0.3 0.1,0.6 0.1,0.9 v 7.5 H 177 v -6.7 c 0,-0.8 -0.2,-1.4 -0.5,-1.7 -0.3,-0.3 -0.8,-0.5 -1.3,-0.5 -0.6,0 -1.3,0.2 -1.9,0.6 v 8.3 h -2.5 v -11.2 z"
   class="st0" />
	<path
   id="path141"
   d="m 188,126.7 v 0 c 0.4,0.1 0.8,0.3 1.3,0.5 0.5,0.2 1,0.3 1.5,0.3 0.4,0 0.9,-0.1 1.3,-0.3 0.3,-0.2 0.6,-0.5 0.6,-1 0,-0.5 -0.3,-0.9 -0.7,-1.1 -0.2,-0.1 -0.5,-0.2 -0.8,-0.3 -0.6,-0.2 -1.2,-0.4 -1.7,-0.6 -0.6,-0.3 -1,-0.7 -1.3,-1.3 -0.1,-0.3 -0.2,-0.7 -0.2,-1.2 0,-1.2 0.5,-2 1.2,-2.6 0.7,-0.5 1.7,-0.8 2.7,-0.8 0.9,0 1.8,0.2 2.5,0.4 v 2.3 l -0.1,0.1 c -0.6,-0.3 -1.2,-0.5 -1.9,-0.5 -0.5,0 -0.9,0.1 -1.2,0.2 -0.3,0.2 -0.5,0.4 -0.5,0.8 0,0.4 0.3,0.6 0.7,0.9 0.2,0.1 0.5,0.2 0.7,0.3 0.6,0.2 1.1,0.4 1.7,0.7 0.6,0.3 1,0.8 1.3,1.5 0.1,0.3 0.2,0.8 0.2,1.2 0,1.3 -0.5,2.2 -1.3,2.8 -0.8,0.6 -1.9,0.9 -3,0.9 -1.1,0 -2.1,-0.3 -2.9,-0.8 v -2.4 z"
   class="st0" />
	<path
   id="path143"
   d="m 206.1,126.7 v 2.4 c -0.5,0.2 -1,0.4 -1.6,0.5 -0.6,0.1 -1.1,0.2 -1.6,0.2 -1.6,0 -3,-0.5 -4,-1.4 -1.1,-1 -1.7,-2.4 -1.7,-4.4 0,-1.9 0.6,-3.3 1.6,-4.3 0.9,-1 2.2,-1.5 3.5,-1.5 0.4,0 1,0 1.6,0.3 0.7,0.2 1.4,0.7 1.9,1.4 0.5,0.7 0.9,1.8 0.9,3.4 v 1.7 h -6.8 c 0.2,0.9 0.7,1.5 1.3,1.9 0.6,0.4 1.3,0.6 2,0.6 1,-0.1 2,-0.4 2.9,-0.8 z m -1.7,-3.7 c -0.1,-0.8 -0.3,-1.4 -0.7,-1.8 -0.4,-0.4 -0.9,-0.5 -1.4,-0.5 -0.5,0 -1,0.2 -1.5,0.5 -0.4,0.4 -0.8,1 -0.9,1.8 z"
   class="st0" />
	<path
   id="path145"
   d="m 127.4,150.3 v -14.2 h 4.1 c 0.9,0 2,0.1 2.9,0.4 0.9,0.3 1.8,0.8 2.4,1.6 0.6,0.8 1,1.8 1,3.1 0,1 -0.2,1.8 -0.7,2.5 -0.4,0.7 -1,1.2 -1.8,1.6 0.3,0.6 0.9,1.4 1.5,2 0.7,0.7 1.4,1.2 2.1,1.4 v 0.1 l -1.1,1.7 c -0.7,0 -1.4,-0.3 -2.1,-0.8 -0.7,-0.5 -1.3,-1.1 -1.8,-1.8 -0.5,-0.7 -0.9,-1.4 -1.1,-1.9 -0.5,0.1 -0.9,0.1 -1.4,0.1 h -1.6 v 4.2 z m 2.5,-11.8 v 5.1 h 1.6 c 1.5,0 2.4,-0.2 3,-0.7 0.6,-0.4 0.8,-1 0.8,-1.8 0,-0.8 -0.2,-1.4 -0.8,-1.9 -0.6,-0.5 -1.5,-0.7 -3,-0.7 z"
   class="st0" />
	<path
   id="path147"
   d="m 149.6,147.4 v 2.4 c -0.5,0.2 -1,0.4 -1.6,0.5 -0.6,0.1 -1.1,0.2 -1.6,0.2 -1.6,0 -3,-0.5 -4,-1.4 -1.1,-1 -1.7,-2.4 -1.7,-4.4 0,-1.9 0.6,-3.3 1.6,-4.3 0.9,-1 2.2,-1.5 3.5,-1.5 0.4,0 1,0 1.6,0.3 0.7,0.2 1.4,0.7 1.9,1.4 0.5,0.7 0.9,1.8 0.9,3.4 v 1.7 h -6.8 c 0.2,0.9 0.7,1.5 1.3,1.9 0.6,0.4 1.3,0.6 2,0.6 0.9,-0.1 1.9,-0.4 2.9,-0.8 z m -1.8,-3.8 c -0.1,-0.8 -0.3,-1.4 -0.7,-1.8 -0.4,-0.4 -0.9,-0.5 -1.4,-0.5 -0.5,0 -1,0.2 -1.5,0.6 -0.4,0.4 -0.8,1 -0.9,1.8 h 4.5 z"
   class="st0" />
	<path
   id="path149"
   d="m 162.2,140.2 -0.1,0.2 c -0.6,0.1 -1.2,0.3 -1.9,0.7 0.2,0.4 0.3,0.9 0.3,1.4 0,1.1 -0.4,2 -1.2,2.8 -0.7,0.7 -1.8,1.2 -3,1.2 -0.5,0 -0.9,-0.1 -1.3,-0.2 -0.2,0.2 -0.2,0.4 -0.2,0.6 0,0.5 0.5,0.8 1.3,0.8 h 1.3 c 1.5,0 2.7,0.4 3.4,1 0.7,0.6 1.1,1.5 1.1,2.4 0,1.2 -0.7,2.3 -1.8,3.1 -1.1,0.8 -2.5,1.3 -3.9,1.3 -1.3,0 -2.3,-0.4 -3,-1 -0.7,-0.6 -1.1,-1.5 -1.1,-2.5 0,-0.9 0.5,-2 1.3,-2.8 -0.3,-0.2 -0.5,-0.5 -0.7,-0.8 -0.2,-0.3 -0.2,-0.7 -0.2,-1 0,-0.6 0.3,-1.3 0.8,-2 -0.3,-0.3 -0.5,-0.7 -0.7,-1.2 -0.2,-0.5 -0.2,-1 -0.2,-1.4 0,-1.1 0.4,-2 1.2,-2.7 0.7,-0.7 1.8,-1.1 3,-1.1 0.8,0 1.6,0.2 2.2,0.5 0.5,-0.4 1,-0.6 1.5,-0.8 0.5,-0.2 1,-0.3 1.3,-0.3 z m -6.9,9.7 c -0.4,0.5 -0.7,1 -0.7,1.5 0,0.4 0.2,0.8 0.5,1.1 0.3,0.3 0.9,0.4 1.5,0.4 0.8,0 1.4,-0.2 1.9,-0.6 0.5,-0.3 0.8,-0.8 0.8,-1.2 0,-0.6 -0.3,-0.9 -0.8,-1.1 -0.5,-0.2 -1.2,-0.2 -2,-0.2 h -1.2 z m 1.1,-8.8 c -0.6,0 -1,0.2 -1.3,0.5 -0.3,0.3 -0.5,0.7 -0.5,1.1 0,0.4 0.2,0.8 0.5,1.1 0.3,0.3 0.7,0.5 1.3,0.5 0.6,0 1,-0.2 1.3,-0.5 0.3,-0.3 0.4,-0.7 0.4,-1.1 0,-0.4 -0.1,-0.8 -0.4,-1.1 -0.3,-0.3 -0.7,-0.5 -1.3,-0.5"
   class="st0" />
	<path
   id="path151"
   d="m 171.7,147.4 v 2.4 c -0.5,0.2 -1,0.4 -1.6,0.5 -0.6,0.1 -1.1,0.2 -1.6,0.2 -1.6,0 -3,-0.5 -4,-1.4 -1.1,-1 -1.7,-2.4 -1.7,-4.4 0,-1.9 0.6,-3.3 1.6,-4.3 0.9,-1 2.2,-1.5 3.5,-1.5 0.4,0 1,0 1.6,0.3 0.7,0.2 1.4,0.7 1.9,1.4 0.5,0.7 0.9,1.8 0.9,3.4 v 1.7 h -6.8 c 0.2,0.9 0.7,1.5 1.3,1.9 0.6,0.4 1.3,0.6 2,0.6 0.9,-0.1 1.9,-0.4 2.9,-0.8 z m -1.7,-3.8 c -0.1,-0.8 -0.3,-1.4 -0.7,-1.8 -0.4,-0.4 -0.9,-0.5 -1.4,-0.5 -0.5,0 -1,0.2 -1.5,0.6 -0.4,0.4 -0.8,1 -0.9,1.8 h 4.5 z"
   class="st0" />
	<path
   id="path153"
   d="m 181.4,141.9 c -0.6,-0.4 -1.3,-0.6 -1.9,-0.6 -0.8,0 -1.6,0.3 -2.3,0.8 v 8.1 h -2.5 V 139 h 2.1 l 0.3,0.9 c 0.8,-0.7 1.7,-1.1 2.8,-1.1 0.3,0 0.7,0 1.1,0.1 0.4,0.1 0.8,0.2 1.1,0.3 z"
   class="st0" />
	<path
   id="path155"
   d="m 183.9,136.1 c 0,-0.4 0.2,-0.8 0.4,-1 0.3,-0.3 0.6,-0.4 1.1,-0.4 0.5,0 0.8,0.2 1.1,0.4 0.3,0.3 0.4,0.6 0.4,1 0,0.4 -0.2,0.8 -0.4,1 -0.3,0.3 -0.6,0.4 -1.1,0.4 -0.5,0 -0.8,-0.2 -1.1,-0.4 -0.3,-0.2 -0.4,-0.5 -0.4,-1 m 0.2,3 h 2.5 v 11.2 h -2.5 z"
   class="st0" />
	<path
   id="path157"
   d="m 189.6,139.1 h 2.1 l 0.2,0.9 c 1,-0.7 2.3,-1.1 3.6,-1.1 1.1,0 2.1,0.3 2.8,0.9 0.7,0.6 1.2,1.6 1.2,3 v 7.4 H 197 v -6.7 c 0,-0.8 -0.3,-1.4 -0.8,-1.8 -0.5,-0.4 -1.1,-0.5 -1.8,-0.5 -0.9,0 -1.7,0.3 -2.4,0.7 v 8.3 h -2.5 v -11.1 z"
   class="st0" />
	<path
   id="path159"
   d="m 212.1,140.2 -0.1,0.2 c -0.6,0.1 -1.2,0.3 -1.9,0.7 0.2,0.4 0.3,0.9 0.3,1.4 0,1.1 -0.4,2 -1.2,2.8 -0.7,0.7 -1.8,1.2 -3,1.2 -0.5,0 -0.9,-0.1 -1.3,-0.2 -0.2,0.2 -0.2,0.4 -0.2,0.6 0,0.5 0.5,0.8 1.2,0.8 h 1.3 c 1.5,0 2.7,0.4 3.4,1 0.7,0.6 1.1,1.5 1.1,2.4 0,1.2 -0.7,2.3 -1.8,3.1 -1.1,0.8 -2.5,1.3 -3.9,1.3 -1.3,0 -2.3,-0.4 -3,-1 -0.7,-0.6 -1.1,-1.5 -1.1,-2.5 0,-0.9 0.5,-2 1.3,-2.8 -0.3,-0.2 -0.5,-0.5 -0.7,-0.8 -0.2,-0.3 -0.2,-0.7 -0.2,-1 0,-0.6 0.3,-1.3 0.8,-2 -0.3,-0.3 -0.5,-0.7 -0.7,-1.2 -0.1,-0.5 -0.2,-1 -0.2,-1.4 0,-1.1 0.4,-2 1.2,-2.7 0.7,-0.7 1.8,-1.1 3,-1.1 0.8,0 1.6,0.2 2.2,0.5 0.5,-0.4 1,-0.6 1.5,-0.8 0.5,-0.2 1,-0.3 1.3,-0.3 z m -6.9,9.7 c -0.4,0.5 -0.7,1 -0.7,1.5 0,0.4 0.2,0.8 0.5,1.1 0.3,0.3 0.9,0.4 1.5,0.4 0.8,0 1.4,-0.2 1.9,-0.6 0.5,-0.3 0.8,-0.8 0.8,-1.2 0,-0.6 -0.3,-0.9 -0.8,-1.1 -0.5,-0.2 -1.2,-0.2 -2,-0.2 h -1.2 z m 1.1,-8.8 c -0.6,0 -1,0.2 -1.3,0.5 -0.3,0.3 -0.5,0.7 -0.5,1.1 0,0.4 0.2,0.8 0.5,1.1 0.3,0.3 0.7,0.5 1.3,0.5 0.6,0 1,-0.2 1.3,-0.5 0.3,-0.3 0.4,-0.7 0.4,-1.1 0,-0.4 -0.1,-0.8 -0.4,-1.1 -0.3,-0.3 -0.7,-0.5 -1.3,-0.5"
   class="st0" />
	
		<rect
   id="rect161"
   height="68.900002"
   width="0.30000001"
   class="st0"
   transform="matrix(0.9449,-0.3274,0.3274,0.9449,-37.9635,43.6896)"
   y="100.2"
   x="110.6" />
	<path
   id="path163"
   d="m 100.3,133.9 c -1.7,-1.3 -2.4,0 -3.5,-0.1 -0.9,-0.1 -1.7,-1.5 -2.4,-1.2 -1.3,0.7 0.5,3 1.3,3.5 0.7,0.4 1.6,0.8 1.8,0.9 1.1,0.5 1.5,1.2 1.6,2.4 0,0.3 0,0.9 -0.1,1.2 -0.5,2 -4,3.9 -6.1,2.5 -1,-0.7 -1.8,-1.5 -2.2,-3 -0.6,-2.7 -2.5,-4.6 -3.1,-7.3 -0.4,-1.6 -0.7,-3.3 -1.1,-4.9 -0.4,-1.7 -0.9,-3.3 -1.2,-4.8 -0.3,-1.4 -1,-3.5 -1.5,-4.8 -2,-5.1 -2.8,-4.7 -2.8,-4.7 0,0 0.7,1.4 3.3,13.9 0.1,0.5 1,6 1.7,7.8 0.2,0.7 0.7,2 1,2.7 0.8,1.8 3,4.5 3.1,7 0.1,1.4 0.2,2.6 0.3,3.7 0,0.3 0.2,1.6 0.4,2.2 0.5,1.5 4.8,6.3 9.4,6.3 v -3.7 c -4.5,0 -8.8,-2.5 -8.9,-2.8 -0.1,-0.1 0.2,-1.8 0.5,-2.6 0.6,-1.5 1.7,-2.8 3.7,-3 2.2,-0.2 3.5,0.5 4.7,0.5 z"
   class="st0" />
	<path
   id="path165"
   d="m 80.7,120.6 c -0.2,2.7 -4.4,6.5 -5.7,8.9 -0.7,1.2 -1.4,3.2 -1.7,4.4 -0.6,3.3 0.2,5.3 0.9,7.2 1.4,3.4 -0.2,4.6 0.9,3.9 1.4,-1.1 1.2,-3.7 1,-5.3 -0.1,-1.3 -0.2,-2.8 0,-4.3 0.4,-2.9 2.1,-6 3.6,-8.2 2,-2.7 1.3,-5.4 1,-6.6"
   class="st0" />
	<path
   id="path167"
   d="m 81.5,128.4 c 0,0 0.5,2.2 -1.5,7.7 -5,14.6 4.6,16 7.3,19.4 0,0 1.1,-1.5 -3.3,-6.2 -1.6,-1.7 -3,-5.6 -1.8,-11 1.9,-8 -0.7,-9.9 -0.7,-9.9"
   class="st0" />
	<path
   id="path169"
   d="m 72.1,118.8 c -0.2,-0.9 -0.3,-1.6 -0.2,-2.3 0.2,-3.4 3.3,-4.8 4.1,-5.3 0,0 1.4,-1 1.6,-1.9 0,0 1.4,3.6 -1.9,5.7 -1.7,1 -2.8,2.2 -3.6,3.8"
   class="st0" />
	<path
   id="path171"
   d="m 79.9,115.5 c 0.2,0.3 1.5,2.2 -3.8,6.6 -5.3,4.4 -3.6,7.5 -3.6,7.5 0,0 -5.6,-3.1 0.9,-8.5 6.5,-5.4 5.2,-6.5 5.2,-6.5 0,0 0.8,-0.1 1.3,0.9"
   class="st0" />
	<path
   id="path173"
   d="m 86.8,117.2 c 0.9,0.1 1.5,3 3.6,3.6 1.6,0.5 3.2,0.2 3.6,1.1 -0.7,0.4 -0.1,1.6 0.6,1.4 0.5,-1.6 0.8,-8.1 -7.8,-6.1 m 2.8,1.3 c 0.1,-0.2 0.2,0 0.4,-0.2 0.2,-0.2 0.5,-0.6 0.9,-0.7 0.3,-0.1 0.7,0 0.9,0.1 0.2,0 0.1,0.5 -0.1,0.6 -0.3,0.2 -1.1,-0.1 -1.1,0.5 0,1 1.4,0 2.1,0 0.5,2.4 -3.7,1.7 -3.1,-0.3"
   class="st0" />
</g>
</svg>
